<?xml version="1.0" encoding="UTF-8" standalone="no"?>
<!-- Created with Inkscape (http://www.inkscape.org/) -->

<svg
   xmlns:dc="http://purl.org/dc/elements/1.1/"
   xmlns:cc="http://creativecommons.org/ns#"
   xmlns:rdf="http://www.w3.org/1999/02/22-rdf-syntax-ns#"
   xmlns:svg="http://www.w3.org/2000/svg"
   xmlns="http://www.w3.org/2000/svg"
   xmlns:sodipodi="http://sodipodi.sourceforge.net/DTD/sodipodi-0.dtd"
   xmlns:inkscape="http://www.inkscape.org/namespaces/inkscape"
   width="90.268684mm"
   height="10.123116mm"
   viewBox="0 0 90.268684 10.123116"
   version="1.1"
   id="svg8"
   inkscape:version="0.92.2 2405546, 2018-03-11"
   sodipodi:docname="site-logo-dark-bg.svg">
  <defs
     id="defs2" />
  <sodipodi:namedview
     id="base"
     pagecolor="#ffffff"
     bordercolor="#666666"
     borderopacity="1.0"
     inkscape:pageopacity="0.0"
     inkscape:pageshadow="2"
     inkscape:zoom="5.6568542"
     inkscape:cx="162.01739"
     inkscape:cy="47.729072"
     inkscape:document-units="mm"
     inkscape:current-layer="layer1"
     showgrid="false"
     fit-margin-top="0"
     fit-margin-left="0"
     fit-margin-right="0"
     fit-margin-bottom="0"
     inkscape:window-width="3840"
     inkscape:window-height="2046"
     inkscape:window-x="0"
     inkscape:window-y="0"
     inkscape:window-maximized="1" />
  <metadata
     id="metadata5">
    <rdf:RDF>
      <cc:Work
         rdf:about="">
        <dc:format>image/svg+xml</dc:format>
        <dc:type
           rdf:resource="http://purl.org/dc/dcmitype/StillImage" />
        <dc:title></dc:title>
      </cc:Work>
    </rdf:RDF>
  </metadata>
  <g
     inkscape:label="Layer 1"
     inkscape:groupmode="layer"
     id="layer1"
     transform="translate(0.56001475,-97.255634)">
    <text
       xml:space="preserve"
       style="font-style:normal;font-weight:normal;font-size:10.58333302px;line-height:1.25;font-family:sans-serif;letter-spacing:0px;word-spacing:0px;fill:#f2f2f2;fill-opacity:1;stroke:none;stroke-width:0.26458332"
       x="10.829113"
       y="107.08755"
       id="text3715"><tspan
         sodipodi:role="line"
         id="tspan3713"
         x="10.829113"
         y="107.08755"
         style="font-style:normal;font-variant:normal;font-weight:normal;font-stretch:normal;font-size:10.58333302px;font-family:'URW Gothic';-inkscape-font-specification:'URW Gothic, Normal';font-variant-ligatures:normal;font-variant-caps:normal;font-variant-numeric:normal;font-feature-settings:normal;text-align:start;writing-mode:lr-tb;text-anchor:start;fill:#f2f2f2;stroke-width:0.26458332">AstroPhoto</tspan></text>
    <text
       xml:space="preserve"
       style="font-style:italic;font-variant:normal;font-weight:500;font-stretch:normal;font-size:11.28888893px;line-height:1.25;font-family:Z003;-inkscape-font-specification:'Z003, Medium Italic';font-variant-ligatures:normal;font-variant-caps:normal;font-variant-numeric:normal;font-feature-settings:normal;text-align:start;letter-spacing:0px;word-spacing:0px;writing-mode:lr-tb;text-anchor:start;opacity:0.40895063;fill:#f2f2f2;fill-opacity:1;stroke:none;stroke-width:0.26458332"
       x="67.053062"
       y="106.82297"
       id="text3719"><tspan
         sodipodi:role="line"
         id="tspan3717"
         x="67.053062"
         y="106.82297"
         style="font-style:italic;font-variant:normal;font-weight:500;font-stretch:normal;font-size:14.11111069px;font-family:Z003;-inkscape-font-specification:'Z003, Medium Italic';font-variant-ligatures:normal;font-variant-caps:normal;font-variant-numeric:normal;font-feature-settings:normal;text-align:start;writing-mode:lr-tb;text-anchor:start;fill:#f2f2f2;stroke-width:0.26458332">Plus</tspan></text>
    <g
       id="g3769"
       transform="matrix(0.07704514,0,0,0.07398648,-0.84885341,98.086852)"
       style="fill:#f2f2f2">
      <path
         id="path3723"
         d="m 34.09,7.17 a 1,1 0 1 0 0.77,1.83 60.28,60.28 0 0 1 65.86,13.11 48.19,48.19 0 0 1 0,68.08 38.31,38.31 0 0 1 -54.18,0 30.49,30.49 0 0 1 0,-43.06 24.15,24.15 0 0 1 34.17,0 19.13,19.13 0 0 1 0,27.05 15.12,15.12 0 0 1 -21.36,0 11.9,11.9 0 0 1 0,-16.8 1,1 0 0 0 0,-1.42 1,1 0 0 0 -1.41,0 13.88,13.88 0 0 0 0,19.63 17.11,17.11 0 0 0 24.18,0 21.11,21.11 0 0 0 0,-29.87 26.13,26.13 0 0 0 -37,0 32.47,32.47 0 0 0 0,45.89 40.32,40.32 0 0 0 57,0 50.2,50.2 0 0 0 0,-70.91 A 62.26,62.26 0 0 0 34.09,7.17 Z"
         inkscape:connector-curvature="0"
         style="fill:#f2f2f2" />
      <path
         id="path3725"
         d="m 28,12.25 a 1,1 0 0 0 0.49,-0.13 c 0.88,-0.49 1.78,-1 2.68,-1.42 A 1,1 0 0 0 31.62,9.36 1,1 0 0 0 30.28,8.91 c -0.93,0.46 -1.86,1 -2.77,1.46 A 1,1 0 0 0 28,12.25 Z"
         inkscape:connector-curvature="0"
         style="fill:#f2f2f2" />
      <path
         id="path3727"
         d="m 21.06,14.52 a 64.27,64.27 0 0 0 -7.21,6.2 1,1 0 0 0 0,1.41 1,1 0 0 0 0.71,0.3 1,1 0 0 0 0.71,-0.3 60.88,60.88 0 0 1 7,-6 1.0020978,1.0020978 0 1 0 -1.18,-1.62 z"
         inkscape:connector-curvature="0"
         style="fill:#f2f2f2" />
      <path
         id="path3729"
         d="m 111.45,113 a 1,1 0 0 0 -1.39,-0.25 60.31,60.31 0 0 1 -77.3,-6.84 48.19,48.19 0 0 1 0,-68.08 38.31,38.31 0 0 1 54.18,0 30.49,30.49 0 0 1 0,43.06 24.18,24.18 0 0 1 -34.16,0 19.14,19.14 0 0 1 0,-27 15.11,15.11 0 0 1 21.35,0 11.88,11.88 0 0 1 0,16.8 1,1 0 0 0 1.42,1.31 13.9,13.9 0 0 0 0,-19.63 17.12,17.12 0 0 0 -24.19,0 21.14,21.14 0 0 0 0,29.87 26.19,26.19 0 0 0 37,0 32.49,32.49 0 0 0 0,-45.89 40.37,40.37 0 0 0 -57,0 50.2,50.2 0 0 0 0,70.91 62.29,62.29 0 0 0 79.85,7.07 1,1 0 0 0 0.24,-1.33 z"
         inkscape:connector-curvature="0"
         style="fill:#f2f2f2" />
      <path
         id="path3731"
         d="M 8.28,58.18 A 1,1 0 0 0 7.13,59 72.38,72.38 0 0 0 6.4,77.77 a 1,1 0 0 0 1,0.91 H 7.49 A 1,1 0 0 0 8.39,77.59 70.6,70.6 0 0 1 9.1,59.33 1,1 0 0 0 8.28,58.18 Z"
         inkscape:connector-curvature="0"
         style="fill:#f2f2f2" />
      <path
         id="path3733"
         d="m 10.15,92.78 a 0.92,0.92 0 0 0 0.29,0 1,1 0 0 0 0.67,-1.25 69.55,69.55 0 0 1 -1.89,-7.85 1.015197,1.015197 0 1 0 -2,0.35 73.66,73.66 0 0 0 1.94,8.08 1,1 0 0 0 0.99,0.67 z"
         inkscape:connector-curvature="0"
         style="fill:#f2f2f2" />
      <path
         id="path3735"
         d="m 118.21,105.87 c -1.15,1.15 -2.35,2.26 -3.57,3.3 a 1.00005,1.00005 0 0 0 1.3,1.52 c 1.26,-1.08 2.5,-2.22 3.69,-3.41 a 1,1 0 0 0 0,-1.41 1,1 0 0 0 -1.42,0 z"
         inkscape:connector-curvature="0"
         style="fill:#f2f2f2" />
      <path
         id="path3737"
         d="m 100.63,39.86 a 1,1 0 0 0 1,0.71 1,1 0 0 0 1,-0.71 5.33,5.33 0 0 1 3.52,-3.51 1,1 0 0 0 0.7,-1 1,1 0 0 0 -0.7,-1 5.34,5.34 0 0 1 -3.52,-3.52 1,1 0 0 0 -1,-0.7 1,1 0 0 0 -1,0.7 5.33,5.33 0 0 1 -3.51,3.52 1,1 0 0 0 -0.71,1 1,1 0 0 0 0.71,1 5.31,5.31 0 0 1 3.51,3.51 z m 1,-6.37 a 7.15,7.15 0 0 0 1.9,1.9 7.3,7.3 0 0 0 -1.9,1.9 7.46,7.46 0 0 0 -1.9,-1.9 7.3,7.3 0 0 0 1.86,-1.9 z"
         inkscape:connector-curvature="0"
         style="fill:#f2f2f2" />
      <path
         id="path3739"
         d="m 115,21.86 a 1,1 0 0 0 1,0.71 1,1 0 0 0 1,-0.71 7.31,7.31 0 0 1 4.71,-4.86 1,1 0 0 0 0,-1.91 7.29,7.29 0 0 1 -4.84,-4.84 1,1 0 0 0 -1,-0.7 1,1 0 0 0 -1,0.7 7.33,7.33 0 0 1 -4.84,4.84 1,1 0 0 0 0,1.91 7.35,7.35 0 0 1 4.97,4.86 z m 1,-8.88 a 9.32,9.32 0 0 0 3,3.09 9.29,9.29 0 0 0 -3.09,3.08 9.35,9.35 0 0 0 -3.08,-3.08 9.38,9.38 0 0 0 3.08,-3.07 z"
         inkscape:connector-curvature="0"
         style="fill:#f2f2f2" />
      <path
         id="path3741"
         d="m 9.88,28.35 a 1,1 0 0 0 -1.92,0 5.29,5.29 0 0 1 -3.51,3.51 1,1 0 0 0 -0.7,1 1,1 0 0 0 0.7,1 5.31,5.31 0 0 1 3.55,3.43 1,1 0 0 0 1.92,0 5.31,5.31 0 0 1 3.51,-3.52 1,1 0 0 0 0.7,-1 1,1 0 0 0 -0.7,-1 5.29,5.29 0 0 1 -3.55,-3.42 z m -1,6.37 A 7.15,7.15 0 0 0 7,32.82 a 7.3,7.3 0 0 0 1.9,-1.9 7.46,7.46 0 0 0 1.9,1.9 7.3,7.3 0 0 0 -1.88,1.9 z"
         inkscape:connector-curvature="0"
         style="fill:#f2f2f2" />
      <path
         id="path3743"
         d="m 123.55,89.94 a 7.81,7.81 0 0 1 -5.18,-5.18 1,1 0 0 0 -1,-0.7 1,1 0 0 0 -1,0.7 7.83,7.83 0 0 1 -5.18,5.18 1,1 0 0 0 -0.71,1 1,1 0 0 0 0.71,0.95 7.87,7.87 0 0 1 5.27,5.11 1,1 0 0 0 1,0.71 1,1 0 0 0 1,-0.71 7.85,7.85 0 0 1 5.18,-5.18 1,1 0 0 0 0.7,-0.95 1,1 0 0 0 -0.79,-0.93 z m -6.14,4.36 a 9.71,9.71 0 0 0 -3.4,-3.4 9.79,9.79 0 0 0 3.4,-3.4 10,10 0 0 0 3.4,3.4 9.88,9.88 0 0 0 -3.4,3.4 z"
         inkscape:connector-curvature="0"
         style="fill:#f2f2f2" />
      <path
         id="path3745"
         d="m 31.21,81.59 a 1,1 0 0 0 -1,-0.71 1,1 0 0 0 -0.95,0.71 5.31,5.31 0 0 1 -3.52,3.51 1,1 0 0 0 -0.7,1 1,1 0 0 0 0.7,1 5.32,5.32 0 0 1 3.52,3.52 1,1 0 0 0 0.95,0.7 1,1 0 0 0 1,-0.7 5.33,5.33 0 0 1 3.51,-3.62 1,1 0 0 0 0.71,-1 1,1 0 0 0 -0.71,-1 5.31,5.31 0 0 1 -3.51,-3.41 z m -1,6.37 a 7.15,7.15 0 0 0 -1.9,-1.9 7.3,7.3 0 0 0 1.9,-1.9 7.46,7.46 0 0 0 1.9,1.9 7.3,7.3 0 0 0 -1.86,1.94 z"
         inkscape:connector-curvature="0"
         style="fill:#f2f2f2" />
      <path
         id="path3747"
         d="m 26.36,20.08 a 1,1 0 0 0 -1,0.71 8.69,8.69 0 0 1 -5.75,5.75 1,1 0 0 0 -0.71,1 1,1 0 0 0 0.71,0.95 8.68,8.68 0 0 1 5.75,5.76 1,1 0 0 0 1.92,0 8.7,8.7 0 0 1 5.75,-5.76 1,1 0 0 0 0.71,-0.95 1,1 0 0 0 -0.71,-1 8.71,8.71 0 0 1 -5.75,-5.75 1,1 0 0 0 -0.92,-0.71 z m 3.93,7.42 a 10.71,10.71 0 0 0 -3.93,3.92 10.71,10.71 0 0 0 -3.93,-3.92 10.73,10.73 0 0 0 3.93,-3.93 10.73,10.73 0 0 0 3.93,3.93 z"
         inkscape:connector-curvature="0"
         style="fill:#f2f2f2" />
    </g>
  </g>
</svg>
