<?xml version="1.0" encoding="UTF-8" standalone="no"?>
<!-- Created with Inkscape (http://www.inkscape.org/) -->

<svg
   xmlns:dc="http://purl.org/dc/elements/1.1/"
   xmlns:cc="http://creativecommons.org/ns#"
   xmlns:rdf="http://www.w3.org/1999/02/22-rdf-syntax-ns#"
   xmlns:svg="http://www.w3.org/2000/svg"
   xmlns="http://www.w3.org/2000/svg"
   xmlns:sodipodi="http://sodipodi.sourceforge.net/DTD/sodipodi-0.dtd"
   xmlns:inkscape="http://www.inkscape.org/namespaces/inkscape"
   width="90.268684mm"
   height="10.123116mm"
   viewBox="0 0 90.268684 10.123116"
   version="1.1"
   id="svg8"
   inkscape:version="0.92.2 2405546, 2018-03-11"
   sodipodi:docname="site-logo-dark-bg.svg">
  <defs
     id="defs2" />
  <sodipodi:namedview
     id="base"
     pagecolor="#ffffff"
     bordercolor="#666666"
     borderopacity="1.0"
     inkscape:pageopacity="0.0"
     inkscape:pageshadow="2"
     inkscape:zoom="5.6568542"
     inkscape:cx="91.306711"
     inkscape:cy="47.729072"
     inkscape:document-units="mm"
     inkscape:current-layer="layer1"
     showgrid="false"
     fit-margin-top="0"
     fit-margin-left="0"
     fit-margin-right="0"
     fit-margin-bottom="0"
     inkscape:window-width="3840"
     inkscape:window-height="2046"
     inkscape:window-x="0"
     inkscape:window-y="0"
     inkscape:window-maximized="1" />
  <metadata
     id="metadata5">
    <rdf:RDF>
      <cc:Work
         rdf:about="">
        <dc:format>image/svg+xml</dc:format>
        <dc:type
           rdf:resource="http://purl.org/dc/dcmitype/StillImage" />
        <dc:title />
      </cc:Work>
    </rdf:RDF>
  </metadata>
  <g
     inkscape:label="Layer 1"
     inkscape:groupmode="layer"
     id="layer1"
     transform="translate(0.56001475,-97.255634)">
    <g
       aria-label="AstroPhoto"
       style="font-style:normal;font-weight:normal;font-size:10.58333302px;line-height:1.25;font-family:sans-serif;letter-spacing:0px;word-spacing:0px;fill:#f2f2f2;fill-opacity:1;stroke:none;stroke-width:0.26458332"
       id="text3715">
      <path
         d="m 10.94553,106.35662 h 0.8255 l 1.143,-2.63525 h 3.640666 l 1.132417,2.63525 h 0.85725 l -3.3655,-7.821082 h -0.878417 z m 2.264833,-3.34433 1.534583,-3.587752 1.502834,3.587752 z"
         style="font-style:normal;font-variant:normal;font-weight:normal;font-stretch:normal;font-size:10.58333302px;font-family:'URW Gothic';-inkscape-font-specification:'URW Gothic, Normal';font-variant-ligatures:normal;font-variant-caps:normal;font-variant-numeric:normal;font-feature-settings:normal;text-align:start;writing-mode:lr-tb;text-anchor:start;fill:#f2f2f2;stroke-width:0.26458332"
         id="path44"
         inkscape:connector-curvature="0" />
      <path
         d="m 18.915772,104.6527 c 0.01058,1.12184 0.740833,1.8415 1.862666,1.8415 1.04775,0 1.767417,-0.74083 1.767417,-1.79916 0,-0.70909 -0.328083,-1.19592 -1.005417,-1.48167 -0.889,-0.37042 -0.931333,-0.381 -1.090083,-0.46567 -0.359833,-0.17991 -0.529167,-0.42333 -0.529167,-0.762 0,-0.46566 0.370417,-0.83608 0.836084,-0.83608 0.508,0 0.804333,0.29633 0.846666,0.84667 h 0.79375 c -0.03175,-0.93134 -0.6985,-1.56634 -1.629833,-1.56634 -0.941917,0 -1.640417,0.68792 -1.640417,1.62984 0,0.42333 0.148167,0.77258 0.433917,1.03716 0.243417,0.22225 0.254,0.23284 1.068917,0.56092 0.899583,0.37042 1.121833,0.58208 1.121833,1.11125 0,0.58208 -0.402167,1.00542 -0.973667,1.00542 -0.656166,0 -1.04775,-0.40217 -1.090083,-1.12184 z"
         style="font-style:normal;font-variant:normal;font-weight:normal;font-stretch:normal;font-size:10.58333302px;font-family:'URW Gothic';-inkscape-font-specification:'URW Gothic, Normal';font-variant-ligatures:normal;font-variant-caps:normal;font-variant-numeric:normal;font-feature-settings:normal;text-align:start;writing-mode:lr-tb;text-anchor:start;fill:#f2f2f2;stroke-width:0.26458332"
         id="path46"
         inkscape:connector-curvature="0" />
      <path
         d="m 24.276561,106.35662 h 0.783166 v -5.08 h 1.30175 v -0.70908 h -1.30175 v -2.032002 h -0.783166 v 2.032002 h -1.248834 v 0.70908 h 1.248834 z"
         style="font-style:normal;font-variant:normal;font-weight:normal;font-stretch:normal;font-size:10.58333302px;font-family:'URW Gothic';-inkscape-font-specification:'URW Gothic, Normal';font-variant-ligatures:normal;font-variant-caps:normal;font-variant-numeric:normal;font-feature-settings:normal;text-align:start;writing-mode:lr-tb;text-anchor:start;fill:#f2f2f2;stroke-width:0.26458332"
         id="path48"
         inkscape:connector-curvature="0" />
      <path
         d="m 27.205498,106.35662 h 0.783166 v -3.37608 c -0.01058,-1.04775 0.5715,-1.69334 1.640417,-1.778 v -0.77259 c -0.836083,0.0423 -1.3335,0.32809 -1.640417,0.96309 v -0.8255 h -0.783166 z"
         style="font-style:normal;font-variant:normal;font-weight:normal;font-stretch:normal;font-size:10.58333302px;font-family:'URW Gothic';-inkscape-font-specification:'URW Gothic, Normal';font-variant-ligatures:normal;font-variant-caps:normal;font-variant-numeric:normal;font-feature-settings:normal;text-align:start;writing-mode:lr-tb;text-anchor:start;fill:#f2f2f2;stroke-width:0.26458332"
         id="path50"
         inkscape:connector-curvature="0" />
      <path
         d="m 32.873203,100.42995 c -1.725083,0 -3.037416,1.30175 -3.037416,2.99509 0,1.78858 1.30175,3.06916 3.100916,3.06916 1.693334,0 2.942167,-1.28058 2.942167,-3.01625 0,-1.76741 -1.259417,-3.048 -3.005667,-3.048 z m 0,0.71967 c 1.280584,0 2.211917,0.98425 2.211917,2.33892 0,1.3335 -0.910167,2.286 -2.169583,2.286 -1.3335,0 -2.286,-0.96309 -2.286,-2.32834 0,-1.31233 0.963083,-2.29658 2.243666,-2.29658 z"
         style="font-style:normal;font-variant:normal;font-weight:normal;font-stretch:normal;font-size:10.58333302px;font-family:'URW Gothic';-inkscape-font-specification:'URW Gothic, Normal';font-variant-ligatures:normal;font-variant-caps:normal;font-variant-numeric:normal;font-feature-settings:normal;text-align:start;writing-mode:lr-tb;text-anchor:start;fill:#f2f2f2;stroke-width:0.26458332"
         id="path52"
         inkscape:connector-curvature="0" />
      <path
         d="m 37.120263,106.35662 h 0.783166 v -3.16442 h 1.502834 c 1.058333,0 1.629833,-0.13758 2.106083,-0.48683 0.508,-0.37042 0.783167,-1.016 0.783167,-1.79917 0,-0.89958 -0.338667,-1.608662 -0.931334,-1.957912 -0.486833,-0.296334 -1.0795,-0.41275 -2.084916,-0.41275 h -2.159 z m 0.783166,-3.8735 v -3.238499 h 1.11125 c 0.899584,0 1.4605,0.07408 1.778,0.232833 0.465667,0.232834 0.709084,0.730246 0.709084,1.428746 0,0.60325 -0.243417,1.09009 -0.645584,1.31234 -0.328083,0.1905 -0.783166,0.26458 -1.502833,0.26458 z"
         style="font-style:normal;font-variant:normal;font-weight:normal;font-stretch:normal;font-size:10.58333302px;font-family:'URW Gothic';-inkscape-font-specification:'URW Gothic, Normal';font-variant-ligatures:normal;font-variant-caps:normal;font-variant-numeric:normal;font-feature-settings:normal;text-align:start;writing-mode:lr-tb;text-anchor:start;fill:#f2f2f2;stroke-width:0.26458332"
         id="path54"
         inkscape:connector-curvature="0" />
      <path
         d="m 43.225191,106.35662 h 0.783167 v -3.175 c 0,-0.62442 0.08467,-0.99483 0.3175,-1.31233 0.3175,-0.45509 0.85725,-0.71967 1.449916,-0.71967 0.560917,0 1.090084,0.23283 1.397,0.62442 0.275167,0.34925 0.391584,0.79375 0.391584,1.47108 v 3.1115 h 0.783166 v -3.1115 c 0,-0.86783 -0.15875,-1.47108 -0.497416,-1.92617 -0.433917,-0.56091 -1.164167,-0.889 -2.010834,-0.889 -0.783166,0 -1.439333,0.3175 -1.830916,0.889 v -2.783412 h -0.783167 z"
         style="font-style:normal;font-variant:normal;font-weight:normal;font-stretch:normal;font-size:10.58333302px;font-family:'URW Gothic';-inkscape-font-specification:'URW Gothic, Normal';font-variant-ligatures:normal;font-variant-caps:normal;font-variant-numeric:normal;font-feature-settings:normal;text-align:start;writing-mode:lr-tb;text-anchor:start;fill:#f2f2f2;stroke-width:0.26458332"
         id="path56"
         inkscape:connector-curvature="0" />
      <path
         d="m 52.489576,100.42995 c -1.725083,0 -3.037416,1.30175 -3.037416,2.99509 0,1.78858 1.30175,3.06916 3.100916,3.06916 1.693334,0 2.942167,-1.28058 2.942167,-3.01625 0,-1.76741 -1.259417,-3.048 -3.005667,-3.048 z m 0,0.71967 c 1.280584,0 2.211917,0.98425 2.211917,2.33892 0,1.3335 -0.910167,2.286 -2.169583,2.286 -1.3335,0 -2.286,-0.96309 -2.286,-2.32834 0,-1.31233 0.963083,-2.29658 2.243666,-2.29658 z"
         style="font-style:normal;font-variant:normal;font-weight:normal;font-stretch:normal;font-size:10.58333302px;font-family:'URW Gothic';-inkscape-font-specification:'URW Gothic, Normal';font-variant-ligatures:normal;font-variant-caps:normal;font-variant-numeric:normal;font-feature-settings:normal;text-align:start;writing-mode:lr-tb;text-anchor:start;fill:#f2f2f2;stroke-width:0.26458332"
         id="path58"
         inkscape:connector-curvature="0" />
      <path
         d="m 57.101431,106.35662 h 0.783166 v -5.08 h 1.30175 v -0.70908 h -1.30175 v -2.032002 h -0.783166 v 2.032002 h -1.248834 v 0.70908 h 1.248834 z"
         style="font-style:normal;font-variant:normal;font-weight:normal;font-stretch:normal;font-size:10.58333302px;font-family:'URW Gothic';-inkscape-font-specification:'URW Gothic, Normal';font-variant-ligatures:normal;font-variant-caps:normal;font-variant-numeric:normal;font-feature-settings:normal;text-align:start;writing-mode:lr-tb;text-anchor:start;fill:#f2f2f2;stroke-width:0.26458332"
         id="path60"
         inkscape:connector-curvature="0" />
      <path
         d="m 62.556147,100.42995 c -1.725084,0 -3.037417,1.30175 -3.037417,2.99509 0,1.78858 1.30175,3.06916 3.100917,3.06916 1.693333,0 2.942166,-1.28058 2.942166,-3.01625 0,-1.76741 -1.259416,-3.048 -3.005666,-3.048 z m 0,0.71967 c 1.280583,0 2.211916,0.98425 2.211916,2.33892 0,1.3335 -0.910166,2.286 -2.169583,2.286 -1.3335,0 -2.286,-0.96309 -2.286,-2.32834 0,-1.31233 0.963083,-2.29658 2.243667,-2.29658 z"
         style="font-style:normal;font-variant:normal;font-weight:normal;font-stretch:normal;font-size:10.58333302px;font-family:'URW Gothic';-inkscape-font-specification:'URW Gothic, Normal';font-variant-ligatures:normal;font-variant-caps:normal;font-variant-numeric:normal;font-feature-settings:normal;text-align:start;writing-mode:lr-tb;text-anchor:start;fill:#f2f2f2;stroke-width:0.26458332"
         id="path62"
         inkscape:connector-curvature="0" />
    </g>
    <g
       aria-label="Plus"
       style="font-style:italic;font-variant:normal;font-weight:500;font-stretch:normal;font-size:11.28888893px;line-height:1.25;font-family:Z003;-inkscape-font-specification:'Z003, Medium Italic';font-variant-ligatures:normal;font-variant-caps:normal;font-variant-numeric:normal;font-feature-settings:normal;text-align:start;letter-spacing:0px;word-spacing:0px;writing-mode:lr-tb;text-anchor:start;opacity:0.40895063;fill:#f2f2f2;fill-opacity:1;stroke:none;stroke-width:0.26458332"
       id="text3719">
      <path
         d="m 68.247273,105.80936 -0.578555,0.57855 h 0.987777 c 3.753556,0 3.880556,-0.0141 5.051778,-0.56444 l 0.02822,-0.127 c -0.790222,0.0847 -1.128889,0.0988 -2.370666,0.11289 0.04233,-0.18345 0.08467,-0.36689 0.127,-0.53623 0.05644,-0.23988 0.112888,-0.47977 0.183444,-0.83255 0.183444,-0.762 0.197556,-0.84667 0.352778,-1.42522 0.931333,-0.0564 1.707444,-0.28223 2.568222,-0.74789 1.016,-0.55034 1.651,-1.53811 1.651,-2.582335 0,-0.973667 -0.776111,-1.425223 -2.441222,-1.425223 -0.155223,0 -0.296334,0 -0.592667,0.01411 l 0.08467,-0.352778 -0.945445,0.479778 c -1.114777,0.112888 -1.749777,0.296333 -2.441222,0.719666 -1.114778,0.677334 -1.721555,1.636892 -1.721555,2.751672 0,0.40922 0.05644,0.69144 0.239889,1.143 l 1.058333,-0.635 c -0.169334,-0.49389 -0.211667,-0.71967 -0.211667,-1.05834 0,-0.74789 0.324556,-1.467554 0.832556,-1.876776 0.479777,-0.366889 0.973666,-0.536222 1.905,-0.635 -0.479778,2.187226 -1.227667,5.192886 -1.749778,6.999116 z m 4.854222,-7.112003 c 0.211667,-0.01411 0.437445,-0.02822 0.550333,-0.02822 0.889,0 1.368778,0.437444 1.368778,1.255889 0,1.495774 -1.001889,2.596444 -2.356555,2.596444 -0.169334,0 -0.268111,-0.0141 -0.493889,-0.0564 z"
         style="font-style:italic;font-variant:normal;font-weight:500;font-stretch:normal;font-size:14.11111069px;font-family:Z003;-inkscape-font-specification:'Z003, Medium Italic';font-variant-ligatures:normal;font-variant-caps:normal;font-variant-numeric:normal;font-feature-settings:normal;text-align:start;writing-mode:lr-tb;text-anchor:start;fill:#f2f2f2;stroke-width:0.26458332"
         id="path65"
         inkscape:connector-curvature="0" />
      <path
         d="m 78.920124,104.58169 c -0.296334,0.16933 -0.296334,0.16933 -0.903111,0.55033 -0.409223,0.254 -0.649111,0.36689 -0.804334,0.36689 -0.141111,0 -0.254,-0.16933 -0.254,-0.36689 v -0.127 -0.127 c 0,-0.254 0.635,-2.99155 1.157111,-4.981219 0.550334,-2.088444 0.677334,-2.328333 1.298223,-2.328333 0.211666,0 0.352777,0.01411 0.691444,0.09878 l 0.606778,-0.747889 c -0.296334,-0.07056 -0.437445,-0.08467 -0.635,-0.08467 -0.564445,0 -1.001889,0.211667 -1.693334,0.832556 -0.620888,0.550333 -0.776111,0.776111 -0.959555,1.284111 -0.112889,0.338667 -0.423333,1.481664 -0.564444,2.102554 l -1.016,4.41678 c -0.01411,0.0847 -0.02822,0.16933 -0.02822,0.254 0,0.43744 0.239889,0.86078 0.465667,0.86078 h 0.08467 0.04233 c 0.08467,0.0423 0.536222,-0.26811 2.511778,-1.69334 z"
         style="font-style:italic;font-variant:normal;font-weight:500;font-stretch:normal;font-size:14.11111069px;font-family:Z003;-inkscape-font-specification:'Z003, Medium Italic';font-variant-ligatures:normal;font-variant-caps:normal;font-variant-numeric:normal;font-feature-settings:normal;text-align:start;writing-mode:lr-tb;text-anchor:start;fill:#f2f2f2;stroke-width:0.26458332"
         id="path67"
         inkscape:connector-curvature="0" />
      <path
         d="m 82.634653,104.53936 c -1.072445,0.73377 -1.566333,1.03011 -1.749778,1.03011 -0.155222,0 -0.268111,-0.19756 -0.268111,-0.46567 0,-0.32455 0.112889,-0.889 0.352778,-1.79211 0.141111,-0.53622 0.282222,-1.07244 0.296333,-1.15711 0.127,-0.53622 0.225778,-0.889 0.254,-0.98778 0.04233,-0.15522 0.07056,-0.29633 0.07056,-0.381 0,-0.11289 -0.07056,-0.18344 -0.169334,-0.18344 -0.141111,0 -1.157111,0.55033 -2.187222,1.18533 l -0.09878,0.381 c 0.606778,-0.31044 0.860778,-0.40922 1.030111,-0.40922 0.112889,0 0.197556,0.0988 0.197556,0.26811 0,0.19755 -0.127,0.74789 -0.395111,1.74978 -0.352778,1.32644 -0.437444,1.70744 -0.437444,2.11666 0,0.39511 0.169333,0.69145 0.395111,0.69145 0.211666,0 0.451555,-0.127 1.171222,-0.59267 1.100666,-0.70555 1.100666,-0.70555 1.453444,-0.94544 -0.127,0.47977 -0.197555,0.95955 -0.197555,1.21355 0,0.19756 0.09878,0.32456 0.254,0.32456 0.282222,0 1.608666,-0.77611 2.582333,-1.50989 l 0.09878,-0.42333 c -1.001889,0.59266 -1.467556,0.84666 -1.622778,0.84666 -0.09878,0 -0.155222,-0.0988 -0.155222,-0.33866 0,-0.71967 0.508,-2.80812 1.128889,-4.61434 -0.183445,0.0988 -0.310445,0.16934 -0.366889,0.19756 -0.169334,0.0847 -0.338667,0.16933 -0.522111,0.23989 -0.04233,0.0282 -0.127,0.0705 -0.282223,0.15522 -0.09878,0.35278 -0.324555,1.29822 -0.691444,2.83633 z"
         style="font-style:italic;font-variant:normal;font-weight:500;font-stretch:normal;font-size:14.11111069px;font-family:Z003;-inkscape-font-specification:'Z003, Medium Italic';font-variant-ligatures:normal;font-variant-caps:normal;font-variant-numeric:normal;font-feature-settings:normal;text-align:start;writing-mode:lr-tb;text-anchor:start;fill:#f2f2f2;stroke-width:0.26458332"
         id="path69"
         inkscape:connector-curvature="0" />
      <path
         d="m 85.089104,105.2308 c -0.01411,0.127 -0.02822,0.23989 -0.02822,0.32456 0,0.62089 0.423333,1.03011 1.044222,1.03011 0.451556,0 1.044222,-0.16934 1.495778,-0.43745 0.846667,-0.47977 1.340555,-1.19944 1.340555,-1.905 0,-0.52211 -0.08467,-0.635 -0.888999,-1.12889 -0.479778,-0.31044 -0.677334,-0.57855 -0.677334,-0.94544 0,-0.47978 0.409222,-0.90311 0.889,-0.90311 0.324556,0 0.578556,0.15522 0.874889,0.55033 0.479778,-0.46566 0.479778,-0.46566 0.663222,-0.73378 -0.282222,-0.33866 -0.550333,-0.47977 -0.945444,-0.47977 -1.030111,0 -2.356556,1.21355 -2.356556,2.159 0,0.43744 0.225778,0.77611 0.762,1.15711 0.705556,0.49389 0.804334,0.62089 0.804334,0.97366 0,0.508 -0.649111,1.10067 -1.199445,1.10067 -0.310444,0 -0.550333,-0.16933 -0.691444,-0.47978 -0.09878,-0.21166 -0.127,-0.42333 -0.141111,-0.91722 -0.155223,0.127 -0.268111,0.19756 -0.324556,0.23989 -0.112889,0.0706 -0.239889,0.14111 -0.366889,0.22578 -0.01411,0 -0.141111,0.0988 -0.254,0.16933 z"
         style="font-style:italic;font-variant:normal;font-weight:500;font-stretch:normal;font-size:14.11111069px;font-family:Z003;-inkscape-font-specification:'Z003, Medium Italic';font-variant-ligatures:normal;font-variant-caps:normal;font-variant-numeric:normal;font-feature-settings:normal;text-align:start;writing-mode:lr-tb;text-anchor:start;fill:#f2f2f2;stroke-width:0.26458332"
         id="path71"
         inkscape:connector-curvature="0" />
    </g>
    <g
       id="g3769"
       transform="matrix(0.07704514,0,0,0.07398648,-0.84885341,98.086852)"
       style="fill:#f2f2f2">
      <path
         id="path3723"
         d="m 34.09,7.17 a 1,1 0 1 0 0.77,1.83 60.28,60.28 0 0 1 65.86,13.11 48.19,48.19 0 0 1 0,68.08 38.31,38.31 0 0 1 -54.18,0 30.49,30.49 0 0 1 0,-43.06 24.15,24.15 0 0 1 34.17,0 19.13,19.13 0 0 1 0,27.05 15.12,15.12 0 0 1 -21.36,0 11.9,11.9 0 0 1 0,-16.8 1,1 0 0 0 0,-1.42 1,1 0 0 0 -1.41,0 13.88,13.88 0 0 0 0,19.63 17.11,17.11 0 0 0 24.18,0 21.11,21.11 0 0 0 0,-29.87 26.13,26.13 0 0 0 -37,0 32.47,32.47 0 0 0 0,45.89 40.32,40.32 0 0 0 57,0 50.2,50.2 0 0 0 0,-70.91 A 62.26,62.26 0 0 0 34.09,7.17 Z"
         inkscape:connector-curvature="0"
         style="fill:#f2f2f2" />
      <path
         id="path3725"
         d="m 28,12.25 a 1,1 0 0 0 0.49,-0.13 c 0.88,-0.49 1.78,-1 2.68,-1.42 A 1,1 0 0 0 31.62,9.36 1,1 0 0 0 30.28,8.91 c -0.93,0.46 -1.86,1 -2.77,1.46 A 1,1 0 0 0 28,12.25 Z"
         inkscape:connector-curvature="0"
         style="fill:#f2f2f2" />
      <path
         id="path3727"
         d="m 21.06,14.52 a 64.27,64.27 0 0 0 -7.21,6.2 1,1 0 0 0 0,1.41 1,1 0 0 0 0.71,0.3 1,1 0 0 0 0.71,-0.3 60.88,60.88 0 0 1 7,-6 1.0020978,1.0020978 0 1 0 -1.18,-1.62 z"
         inkscape:connector-curvature="0"
         style="fill:#f2f2f2" />
      <path
         id="path3729"
         d="m 111.45,113 a 1,1 0 0 0 -1.39,-0.25 60.31,60.31 0 0 1 -77.3,-6.84 48.19,48.19 0 0 1 0,-68.08 38.31,38.31 0 0 1 54.18,0 30.49,30.49 0 0 1 0,43.06 24.18,24.18 0 0 1 -34.16,0 19.14,19.14 0 0 1 0,-27 15.11,15.11 0 0 1 21.35,0 11.88,11.88 0 0 1 0,16.8 1,1 0 0 0 1.42,1.31 13.9,13.9 0 0 0 0,-19.63 17.12,17.12 0 0 0 -24.19,0 21.14,21.14 0 0 0 0,29.87 26.19,26.19 0 0 0 37,0 32.49,32.49 0 0 0 0,-45.89 40.37,40.37 0 0 0 -57,0 50.2,50.2 0 0 0 0,70.91 62.29,62.29 0 0 0 79.85,7.07 1,1 0 0 0 0.24,-1.33 z"
         inkscape:connector-curvature="0"
         style="fill:#f2f2f2" />
      <path
         id="path3731"
         d="M 8.28,58.18 A 1,1 0 0 0 7.13,59 72.38,72.38 0 0 0 6.4,77.77 a 1,1 0 0 0 1,0.91 H 7.49 A 1,1 0 0 0 8.39,77.59 70.6,70.6 0 0 1 9.1,59.33 1,1 0 0 0 8.28,58.18 Z"
         inkscape:connector-curvature="0"
         style="fill:#f2f2f2" />
      <path
         id="path3733"
         d="m 10.15,92.78 a 0.92,0.92 0 0 0 0.29,0 1,1 0 0 0 0.67,-1.25 69.55,69.55 0 0 1 -1.89,-7.85 1.015197,1.015197 0 1 0 -2,0.35 73.66,73.66 0 0 0 1.94,8.08 1,1 0 0 0 0.99,0.67 z"
         inkscape:connector-curvature="0"
         style="fill:#f2f2f2" />
      <path
         id="path3735"
         d="m 118.21,105.87 c -1.15,1.15 -2.35,2.26 -3.57,3.3 a 1.00005,1.00005 0 0 0 1.3,1.52 c 1.26,-1.08 2.5,-2.22 3.69,-3.41 a 1,1 0 0 0 0,-1.41 1,1 0 0 0 -1.42,0 z"
         inkscape:connector-curvature="0"
         style="fill:#f2f2f2" />
      <path
         id="path3737"
         d="m 100.63,39.86 a 1,1 0 0 0 1,0.71 1,1 0 0 0 1,-0.71 5.33,5.33 0 0 1 3.52,-3.51 1,1 0 0 0 0.7,-1 1,1 0 0 0 -0.7,-1 5.34,5.34 0 0 1 -3.52,-3.52 1,1 0 0 0 -1,-0.7 1,1 0 0 0 -1,0.7 5.33,5.33 0 0 1 -3.51,3.52 1,1 0 0 0 -0.71,1 1,1 0 0 0 0.71,1 5.31,5.31 0 0 1 3.51,3.51 z m 1,-6.37 a 7.15,7.15 0 0 0 1.9,1.9 7.3,7.3 0 0 0 -1.9,1.9 7.46,7.46 0 0 0 -1.9,-1.9 7.3,7.3 0 0 0 1.86,-1.9 z"
         inkscape:connector-curvature="0"
         style="fill:#f2f2f2" />
      <path
         id="path3739"
         d="m 115,21.86 a 1,1 0 0 0 1,0.71 1,1 0 0 0 1,-0.71 7.31,7.31 0 0 1 4.71,-4.86 1,1 0 0 0 0,-1.91 7.29,7.29 0 0 1 -4.84,-4.84 1,1 0 0 0 -1,-0.7 1,1 0 0 0 -1,0.7 7.33,7.33 0 0 1 -4.84,4.84 1,1 0 0 0 0,1.91 7.35,7.35 0 0 1 4.97,4.86 z m 1,-8.88 a 9.32,9.32 0 0 0 3,3.09 9.29,9.29 0 0 0 -3.09,3.08 9.35,9.35 0 0 0 -3.08,-3.08 9.38,9.38 0 0 0 3.08,-3.07 z"
         inkscape:connector-curvature="0"
         style="fill:#f2f2f2" />
      <path
         id="path3741"
         d="m 9.88,28.35 a 1,1 0 0 0 -1.92,0 5.29,5.29 0 0 1 -3.51,3.51 1,1 0 0 0 -0.7,1 1,1 0 0 0 0.7,1 5.31,5.31 0 0 1 3.55,3.43 1,1 0 0 0 1.92,0 5.31,5.31 0 0 1 3.51,-3.52 1,1 0 0 0 0.7,-1 1,1 0 0 0 -0.7,-1 5.29,5.29 0 0 1 -3.55,-3.42 z m -1,6.37 A 7.15,7.15 0 0 0 7,32.82 a 7.3,7.3 0 0 0 1.9,-1.9 7.46,7.46 0 0 0 1.9,1.9 7.3,7.3 0 0 0 -1.88,1.9 z"
         inkscape:connector-curvature="0"
         style="fill:#f2f2f2" />
      <path
         id="path3743"
         d="m 123.55,89.94 a 7.81,7.81 0 0 1 -5.18,-5.18 1,1 0 0 0 -1,-0.7 1,1 0 0 0 -1,0.7 7.83,7.83 0 0 1 -5.18,5.18 1,1 0 0 0 -0.71,1 1,1 0 0 0 0.71,0.95 7.87,7.87 0 0 1 5.27,5.11 1,1 0 0 0 1,0.71 1,1 0 0 0 1,-0.71 7.85,7.85 0 0 1 5.18,-5.18 1,1 0 0 0 0.7,-0.95 1,1 0 0 0 -0.79,-0.93 z m -6.14,4.36 a 9.71,9.71 0 0 0 -3.4,-3.4 9.79,9.79 0 0 0 3.4,-3.4 10,10 0 0 0 3.4,3.4 9.88,9.88 0 0 0 -3.4,3.4 z"
         inkscape:connector-curvature="0"
         style="fill:#f2f2f2" />
      <path
         id="path3745"
         d="m 31.21,81.59 a 1,1 0 0 0 -1,-0.71 1,1 0 0 0 -0.95,0.71 5.31,5.31 0 0 1 -3.52,3.51 1,1 0 0 0 -0.7,1 1,1 0 0 0 0.7,1 5.32,5.32 0 0 1 3.52,3.52 1,1 0 0 0 0.95,0.7 1,1 0 0 0 1,-0.7 5.33,5.33 0 0 1 3.51,-3.62 1,1 0 0 0 0.71,-1 1,1 0 0 0 -0.71,-1 5.31,5.31 0 0 1 -3.51,-3.41 z m -1,6.37 a 7.15,7.15 0 0 0 -1.9,-1.9 7.3,7.3 0 0 0 1.9,-1.9 7.46,7.46 0 0 0 1.9,1.9 7.3,7.3 0 0 0 -1.86,1.94 z"
         inkscape:connector-curvature="0"
         style="fill:#f2f2f2" />
      <path
         id="path3747"
         d="m 26.36,20.08 a 1,1 0 0 0 -1,0.71 8.69,8.69 0 0 1 -5.75,5.75 1,1 0 0 0 -0.71,1 1,1 0 0 0 0.71,0.95 8.68,8.68 0 0 1 5.75,5.76 1,1 0 0 0 1.92,0 8.7,8.7 0 0 1 5.75,-5.76 1,1 0 0 0 0.71,-0.95 1,1 0 0 0 -0.71,-1 8.71,8.71 0 0 1 -5.75,-5.75 1,1 0 0 0 -0.92,-0.71 z m 3.93,7.42 a 10.71,10.71 0 0 0 -3.93,3.92 10.71,10.71 0 0 0 -3.93,-3.92 10.73,10.73 0 0 0 3.93,-3.93 10.73,10.73 0 0 0 3.93,3.93 z"
         inkscape:connector-curvature="0"
         style="fill:#f2f2f2" />
    </g>
  </g>
</svg>
