<svg class="lds-spinner" width="200px"  height="200px"  xmlns="http://www.w3.org/2000/svg" xmlns:xlink="http://www.w3.org/1999/xlink" viewBox="0 0 100 100" preserveAspectRatio="xMidYMid" style="background: none;"><g transform="rotate(0 50 50)" class="">
  <rect x="46" y="7.5" rx="23" ry="3.75" width="8" height="5" fill="#0055a5" class="">
    <animate attributeName="opacity" values="1;0" keyTimes="0;1" dur="1s" begin="-0.9333333333333333s" repeatCount="indefinite" class=""></animate>
  </rect>
</g><g transform="rotate(24 50 50)" class="">
  <rect x="46" y="7.5" rx="23" ry="3.75" width="8" height="5" fill="#0055a5" class="">
    <animate attributeName="opacity" values="1;0" keyTimes="0;1" dur="1s" begin="-0.8666666666666667s" repeatCount="indefinite" class=""></animate>
  </rect>
</g><g transform="rotate(48 50 50)" class="">
  <rect x="46" y="7.5" rx="23" ry="3.75" width="8" height="5" fill="#0055a5" class="">
    <animate attributeName="opacity" values="1;0" keyTimes="0;1" dur="1s" begin="-0.8s" repeatCount="indefinite" class=""></animate>
  </rect>
</g><g transform="rotate(72 50 50)" class="">
  <rect x="46" y="7.5" rx="23" ry="3.75" width="8" height="5" fill="#0055a5" class="">
    <animate attributeName="opacity" values="1;0" keyTimes="0;1" dur="1s" begin="-0.7333333333333333s" repeatCount="indefinite" class=""></animate>
  </rect>
</g><g transform="rotate(96 50 50)" class="">
  <rect x="46" y="7.5" rx="23" ry="3.75" width="8" height="5" fill="#0055a5" class="">
    <animate attributeName="opacity" values="1;0" keyTimes="0;1" dur="1s" begin="-0.6666666666666666s" repeatCount="indefinite" class=""></animate>
  </rect>
</g><g transform="rotate(120 50 50)" class="">
  <rect x="46" y="7.5" rx="23" ry="3.75" width="8" height="5" fill="#0055a5" class="">
    <animate attributeName="opacity" values="1;0" keyTimes="0;1" dur="1s" begin="-0.6s" repeatCount="indefinite" class=""></animate>
  </rect>
</g><g transform="rotate(144 50 50)" class="">
  <rect x="46" y="7.5" rx="23" ry="3.75" width="8" height="5" fill="#0055a5" class="">
    <animate attributeName="opacity" values="1;0" keyTimes="0;1" dur="1s" begin="-0.5333333333333333s" repeatCount="indefinite" class=""></animate>
  </rect>
</g><g transform="rotate(168 50 50)" class="">
  <rect x="46" y="7.5" rx="23" ry="3.75" width="8" height="5" fill="#0055a5" class="">
    <animate attributeName="opacity" values="1;0" keyTimes="0;1" dur="1s" begin="-0.4666666666666667s" repeatCount="indefinite" class=""></animate>
  </rect>
</g><g transform="rotate(192 50 50)" class="">
  <rect x="46" y="7.5" rx="23" ry="3.75" width="8" height="5" fill="#0055a5" class="">
    <animate attributeName="opacity" values="1;0" keyTimes="0;1" dur="1s" begin="-0.4s" repeatCount="indefinite" class=""></animate>
  </rect>
</g><g transform="rotate(216 50 50)" class="">
  <rect x="46" y="7.5" rx="23" ry="3.75" width="8" height="5" fill="#0055a5" class="">
    <animate attributeName="opacity" values="1;0" keyTimes="0;1" dur="1s" begin="-0.3333333333333333s" repeatCount="indefinite" class=""></animate>
  </rect>
</g><g transform="rotate(240 50 50)" class="">
  <rect x="46" y="7.5" rx="23" ry="3.75" width="8" height="5" fill="#0055a5" class="">
    <animate attributeName="opacity" values="1;0" keyTimes="0;1" dur="1s" begin="-0.26666666666666666s" repeatCount="indefinite" class=""></animate>
  </rect>
</g><g transform="rotate(264 50 50)" class="">
  <rect x="46" y="7.5" rx="23" ry="3.75" width="8" height="5" fill="#0055a5" class="">
    <animate attributeName="opacity" values="1;0" keyTimes="0;1" dur="1s" begin="-0.2s" repeatCount="indefinite" class=""></animate>
  </rect>
</g><g transform="rotate(288 50 50)" class="">
  <rect x="46" y="7.5" rx="23" ry="3.75" width="8" height="5" fill="#0055a5" class="">
    <animate attributeName="opacity" values="1;0" keyTimes="0;1" dur="1s" begin="-0.13333333333333333s" repeatCount="indefinite" class=""></animate>
  </rect>
</g><g transform="rotate(312 50 50)" class="">
  <rect x="46" y="7.5" rx="23" ry="3.75" width="8" height="5" fill="#0055a5" class="">
    <animate attributeName="opacity" values="1;0" keyTimes="0;1" dur="1s" begin="-0.06666666666666667s" repeatCount="indefinite" class=""></animate>
  </rect>
</g><g transform="rotate(336 50 50)" class="">
  <rect x="46" y="7.5" rx="23" ry="3.75" width="8" height="5" fill="#0055a5" class="">
    <animate attributeName="opacity" values="1;0" keyTimes="0;1" dur="1s" begin="0s" repeatCount="indefinite" class=""></animate>
  </rect>
</g></svg>